<svg id="Gradient" height="512" viewBox="0 0 64 64" width="512" xmlns="http://www.w3.org/2000/svg" xmlns:xlink="http://www.w3.org/1999/xlink"><linearGradient id="linear-gradient" gradientUnits="userSpaceOnUse" x1="4" x2="60" y1="31.928" y2="31.928"><stop offset="0" stop-color="#7f00ff"/><stop offset="1" stop-color="#e100ff"/></linearGradient><path d="m32 4a28.03146 28.03146 0 0 0 -28 28c1.53775 37.14587 54.46791 37.13506 56.00005-.00021a28.03149 28.03149 0 0 0 -28.00005-27.99979zm0 54a26.02885 26.02885 0 0 1 -26-26c1.42751-34.49267 50.57775-34.48263 52.00005.0002a26.02889 26.02889 0 0 1 -26.00005 25.9998zm0-50a24.0275 24.0275 0 0 0 -24 24c1.31868 31.83921 46.68617 31.82994 48.00005-.00018a24.02753 24.02753 0 0 0 -24.00005-23.99982zm0 46a22.02489 22.02489 0 0 1 -22-22c1.20843-29.186 42.796-29.17751 44 .00017a22.02492 22.02492 0 0 1 -22 21.99983zm8.25-38a4.004 4.004 0 0 0 -4 4v8h-8.5v-8a4.00017 4.00017 0 0 0 -8 .00009v23.99991a4.00016 4.00016 0 0 0 8-.00009v-7.99991h8.5v8a4.00017 4.00017 0 0 0 8-.00009v-23.99991a4.004 4.004 0 0 0 -4-4zm2 28a2.00021 2.00021 0 0 1 -4-.00009v-8.99991a.99943.99943 0 0 0 -1-1h-10.5a.99943.99943 0 0 0 -1 1v9a2 2 0 0 1 -4 0v-24a2.00021 2.00021 0 0 1 4 .00009v8.99991a.99943.99943 0 0 0 1 1h10.5a.99943.99943 0 0 0 1-1v-9a2.00022 2.00022 0 0 1 4 .00009z" fill="url(#linear-gradient)"/></svg>